<svg width="33" height="31" viewBox="0 0 33 31" fill="none" xmlns="http://www.w3.org/2000/svg">
<path d="M4.9946 28.4144L8.45198 30.5L28.0438 2.98663L24.7401 0.5L4.9946 28.4144ZM0.5 8.64171C0.5 12.8128 3.68848 15.7406 7.87575 15.7406C12.063 15.7406 15.2131 12.8128 15.2131 8.64171C15.2131 4.43048 12.063 1.50268 7.87575 1.50268C3.68848 1.50268 0.5 4.43048 0.5 8.64171ZM4.84094 8.64171C4.84094 6.67647 6.2623 5.39305 7.87575 5.39305C9.4892 5.39305 10.8721 6.67647 10.8721 8.64171C10.8721 10.6471 9.52761 11.9305 7.87575 11.9305C6.30072 11.9305 4.84094 10.6471 4.84094 8.64171ZM17.7869 22.7193C17.7869 26.8904 20.9754 29.8583 25.1627 29.8583C29.3115 29.8583 32.5 26.8904 32.5 22.7193C32.5 18.508 29.3115 15.6203 25.1627 15.6203C20.9754 15.6203 17.7869 18.508 17.7869 22.7193ZM22.1278 22.7193C22.1278 20.7139 23.5492 19.4305 25.1627 19.4305C26.7377 19.4305 28.1591 20.7139 28.1591 22.7193C28.1591 24.6845 26.7761 25.9679 25.1627 25.9679C23.5876 25.9679 22.1278 24.6845 22.1278 22.7193Z" fill="#00BDF8"/>
</svg>
